<svg id="visual" viewBox="0 0 900 600" width="900" height="600" xmlns="http://www.w3.org/2000/svg" xmlns:xlink="http://www.w3.org/1999/xlink" version="1.1"><rect x="0" y="0" width="900" height="600" fill="#F5F5F5"></rect><path d="M0 351L129 418L257 411L386 381L514 437L643 434L771 374L900 413L900 601L771 601L643 601L514 601L386 601L257 601L129 601L0 601Z" fill="#863bbb"></path><path d="M0 451L129 402L257 444L386 455L514 399L643 429L771 474L900 470L900 601L771 601L643 601L514 601L386 601L257 601L129 601L0 601Z" fill="#a835ba"></path><path d="M0 472L129 441L257 459L386 437L514 499L643 468L771 448L900 479L900 601L771 601L643 601L514 601L386 601L257 601L129 601L0 601Z" fill="#c82db6"></path><path d="M0 532L129 530L257 530L386 514L514 520L643 539L771 513L900 538L900 601L771 601L643 601L514 601L386 601L257 601L129 601L0 601Z" fill="#e524af"></path><path d="M0 541L129 569L257 568L386 545L514 567L643 568L771 572L900 569L900 601L771 601L643 601L514 601L386 601L257 601L129 601L0 601Z" fill="#ff1ea6"></path></svg>